<?xml version="1.0" encoding="UTF-8" standalone="no"?>
<!-- Created with Inkscape (http://www.inkscape.org/) -->

<svg version="1.1" id="svg2" width="666.66669" height="666.66669" viewBox="0 0 666.66669 666.66669"
   sodipodi:docname="5328479.ai" xmlns:inkscape="http://www.inkscape.org/namespaces/inkscape"
   xmlns:sodipodi="http://sodipodi.sourceforge.net/DTD/sodipodi-0.dtd" xmlns="http://www.w3.org/2000/svg"
   xmlns:svg="http://www.w3.org/2000/svg">
   <defs id="defs6">
      <pattern patternTransform="translate(0,500)" patternUnits="userSpaceOnUse" x="0" y="0" width="174" height="259"
         id="pattern48">
         <g transform="translate(153.5962,-51.1026)" id="g14">
            <path
               d="M 0,0 0,-16.718 8.357,-8.36 0,0 Z m 40.679,-40.693 -9.357,9.36 L 0,-62.654 0,-81.373 40.679,-40.693 Z M -1,-85.201 l -1,-1 -19.546,-19.546 0,-0.375 -0.375,0 -20.762,-20.762 9.359,-9.359 L 8.359,-94.56 -1,-85.201 Z m 41.687,-41.687 -9.367,9.367 -41.683,-41.682 9.367,-9.367 41.683,41.682 z m -30.841,-33.668 -9.842,-9.842 0,-18.857 19.271,19.271 -9.429,9.428 z m -9.842,-71.654 40.748,40.748 -9.452,9.452 -31.296,-31.296 0,-18.904 z m 0,21.732 29.882,29.882 -9.197,9.198 -20.685,-20.685 0,-18.395 z m -21.122,62.029 9.341,-9.34 41.683,41.682 -9.341,9.341 -41.683,-41.683 z m 40.269,43.097 -9.378,9.378 -41.683,-41.683 9.378,-9.378 41.683,41.683 z m -62.244,-19.113 8.999,8.999 0,63.371 -8.999,9.002 0,-81.372 z M -2,0.001 -10.349,-8.348 -2,-16.714 -2,0.001 Z M 19.137,-19.143 9.771,-9.775 0,-19.546 0,-38.279 19.137,-19.143 Z M 0,-59.826 29.908,-29.918 20.55,-20.557 0,-41.107 0,-59.826 Z m -2,21.561 0,18.719 -9.763,9.784 -9.37,-9.37 L -2,-38.265 Z m -20.547,17.719 -9.366,-9.366 29.913,-29.914 0,18.733 -20.547,20.547 z M -2,-81.372 l 0,18.718 -31.327,31.328 -9.352,-9.352 L -2,-81.372 Z m -19.546,-21.546 19.132,19.132 -19.132,19.139 0,-38.271 z m -2,-2 0,42.271 -8.548,8.551 0,-59.37 8.548,8.548 z m 96.969,117.572 0,0.11 -31.33,31.33 L 32.734,34.735 75.13,-7.662 73.716,-9.076 31.32,33.321 21.976,23.976 64.37,-18.417 62.956,-19.832 20.562,22.562 11.187,13.188 53.584,-29.208 52.17,-30.623 9.773,11.774 0.414,2.415 43.507,-40.693 32.749,-51.452 l 10.066,-10.066 -1.414,-1.414 -10.066,10.066 -9.359,-9.359 20.839,-20.839 -1.414,-1.415 -20.839,20.84 -9.36,-9.359 31.613,-31.613 -1.414,-1.414 -31.613,31.613 -9.374,-9.375 43.101,-43.101 -10.766,-10.765 9.352,-9.352 10.066,10.067 1.414,-1.415 -11.48,-11.48 -10.766,10.766 -9.359,-9.359 20.125,-20.126 20.839,20.84 1.414,-1.414 -22.253,-22.254 -21.539,21.54 -9.302,-9.302 30.906,-30.906 31.555,31.555 1.414,-1.414 -32.663,-32.663 -42.468,-42.469 0,-21.12 -2,0 0,85.761 -43.097,43.096 0,86.967 0,0.071 86.186,86.186 0,21.118 2,0 0,-21.118 8.851,-8.851 0,40.747 2,0 0,-42.747 8.706,-8.706 0,62.236 2,0 0,-64.236 8.773,-8.773 0,83.772 2,0 0,-85.772 L 85.901,3.114 84.487,1.7 73.533,12.654 l -0.11,0 z"
               style="fill:#c2bdb3;fill-opacity:1;fill-rule:nonzero;stroke:none" id="path12" />
         </g>
         <g transform="translate(66.5962,-51.1026)" id="g18">
            <path
               d="M 0,0 0,-16.718 8.357,-8.36 0,0 Z m 40.679,-40.693 -9.357,9.36 L 0,-62.654 0,-81.373 40.679,-40.693 Z M -1,-85.201 l -1,-1 -19.546,-19.546 0,-0.375 -0.375,0 -20.762,-20.762 9.359,-9.359 L 8.359,-94.56 -1,-85.201 Z m 41.687,-41.687 -9.367,9.367 -41.683,-41.682 9.367,-9.367 41.683,41.682 z m -30.841,-33.668 -9.842,-9.842 0,-18.857 19.271,19.271 -9.429,9.428 z m -9.842,-71.654 40.748,40.748 -9.452,9.452 -31.296,-31.296 0,-18.904 z m 0,21.732 29.882,29.882 -9.197,9.198 -20.685,-20.685 0,-18.395 z m -21.122,62.029 9.341,-9.34 41.683,41.682 -9.341,9.341 -41.683,-41.683 z m 40.269,43.097 -9.378,9.378 -41.683,-41.683 9.378,-9.378 41.683,41.683 z m -62.244,-19.113 8.999,8.999 0,63.371 -8.999,9.002 0,-81.372 z M -2,0.001 -10.349,-8.348 -2,-16.714 -2,0.001 Z M 19.137,-19.143 9.771,-9.775 0,-19.546 0,-38.279 19.137,-19.143 Z M 0,-59.826 29.908,-29.918 20.55,-20.557 0,-41.107 0,-59.826 Z m -2,21.561 0,18.719 -9.763,9.784 -9.37,-9.37 L -2,-38.265 Z m -20.547,17.719 -9.366,-9.366 29.913,-29.914 0,18.733 -20.547,20.547 z M -2,-81.372 l 0,18.718 -31.327,31.328 -9.352,-9.352 L -2,-81.372 Z m -19.546,-21.546 19.132,19.132 -19.132,19.139 0,-38.271 z m -2,-2 0,42.271 -8.548,8.551 0,-59.37 8.548,8.548 z m 96.969,117.572 0,0.11 -31.33,31.33 L 32.734,34.735 75.13,-7.662 73.716,-9.076 31.32,33.321 21.976,23.976 64.37,-18.417 62.956,-19.832 20.562,22.562 11.187,13.188 53.584,-29.208 52.17,-30.623 9.773,11.774 0.414,2.415 43.507,-40.693 32.749,-51.452 l 10.066,-10.066 -1.414,-1.414 -10.066,10.066 -9.359,-9.359 20.839,-20.839 -1.414,-1.415 -20.839,20.84 -9.36,-9.359 31.613,-31.613 -1.414,-1.414 -31.613,31.613 -9.374,-9.375 43.101,-43.101 -10.766,-10.765 9.352,-9.352 10.066,10.067 1.414,-1.415 -11.48,-11.48 -10.766,10.766 -9.359,-9.359 20.125,-20.126 20.839,20.84 1.414,-1.414 -22.253,-22.254 -21.539,21.54 -9.302,-9.302 30.906,-30.906 31.555,31.555 1.414,-1.414 -32.663,-32.663 -42.468,-42.469 0,-21.12 -2,0 0,85.761 -43.097,43.096 0,86.967 0,0.071 86.186,86.186 0,21.118 2,0 0,-21.118 8.851,-8.851 0,40.747 2,0 0,-42.747 8.706,-8.706 0,62.236 2,0 0,-64.236 8.773,-8.773 0,83.772 2,0 0,-85.772 L 85.901,3.114 84.487,1.7 73.533,12.654 l -0.11,0 z"
               style="fill:#c2bdb3;fill-opacity:1;fill-rule:nonzero;stroke:none" id="path16" />
         </g>
         <g transform="translate(-20.4038,-51.1026)" id="g22">
            <path
               d="M 0,0 0,-16.718 8.357,-8.36 0,0 Z m 40.679,-40.693 -9.357,9.36 L 0,-62.654 0,-81.373 40.679,-40.693 Z M -1,-85.201 l -1,-1 -19.546,-19.546 0,-0.375 -0.375,0 -20.762,-20.762 9.359,-9.359 L 8.359,-94.56 -1,-85.201 Z m 41.687,-41.687 -9.367,9.367 -41.683,-41.682 9.367,-9.367 41.683,41.682 z m -30.841,-33.668 -9.842,-9.842 0,-18.857 19.271,19.271 -9.429,9.428 z m -9.842,-71.654 40.748,40.748 -9.452,9.452 -31.296,-31.296 0,-18.904 z m 0,21.732 29.882,29.882 -9.197,9.198 -20.685,-20.685 0,-18.395 z m -21.122,62.029 9.341,-9.34 41.683,41.682 -9.341,9.341 -41.683,-41.683 z m 40.269,43.097 -9.378,9.378 -41.683,-41.683 9.378,-9.378 41.683,41.683 z m -62.244,-19.113 8.999,8.999 0,63.371 -8.999,9.002 0,-81.372 z M -2,0.001 -10.349,-8.348 -2,-16.714 -2,0.001 Z M 19.137,-19.143 9.771,-9.775 0,-19.546 0,-38.279 19.137,-19.143 Z M 0,-59.826 29.908,-29.918 20.55,-20.557 0,-41.107 0,-59.826 Z m -2,21.561 0,18.719 -9.763,9.784 -9.37,-9.37 L -2,-38.265 Z m -20.547,17.719 -9.366,-9.366 29.913,-29.914 0,18.733 -20.547,20.547 z M -2,-81.372 l 0,18.718 -31.327,31.328 -9.352,-9.352 L -2,-81.372 Z m -19.546,-21.546 19.132,19.132 -19.132,19.139 0,-38.271 z m -2,-2 0,42.271 -8.548,8.551 0,-59.37 8.548,8.548 z m 96.969,117.572 0,0.11 -31.33,31.33 L 32.734,34.735 75.13,-7.662 73.716,-9.076 31.32,33.321 21.976,23.976 64.37,-18.417 62.956,-19.832 20.562,22.562 11.187,13.188 53.584,-29.208 52.17,-30.623 9.773,11.774 0.414,2.415 43.507,-40.693 32.749,-51.452 l 10.066,-10.066 -1.414,-1.414 -10.066,10.066 -9.359,-9.359 20.839,-20.839 -1.414,-1.415 -20.839,20.84 -9.36,-9.359 31.613,-31.613 -1.414,-1.414 -31.613,31.613 -9.374,-9.375 43.101,-43.101 -10.766,-10.765 9.352,-9.352 10.066,10.067 1.414,-1.415 -11.48,-11.48 -10.766,10.766 -9.359,-9.359 20.125,-20.126 20.839,20.84 1.415,-1.414 -22.254,-22.254 -21.539,21.54 -9.302,-9.302 30.906,-30.906 31.555,31.555 1.414,-1.414 -32.663,-32.663 -42.468,-42.469 0,-21.12 -2,0 0,85.761 -43.097,43.096 0,86.967 0,0.071 86.186,86.186 0,21.118 2,0 0,-21.118 8.851,-8.851 0,40.747 2,0 0,-42.747 8.706,-8.706 0,62.236 2,0 0,-64.236 8.773,-8.773 0,83.772 2,0 0,-85.772 L 85.901,3.114 84.487,1.7 73.533,12.654 l -0.11,0 z"
               style="fill:#c2bdb3;fill-opacity:1;fill-rule:nonzero;stroke:none" id="path20" />
         </g>
         <g transform="translate(153.5962,207.8974)" id="g26">
            <path
               d="M 0,0 0,-16.718 8.357,-8.36 0,0 Z m 40.679,-40.693 -9.357,9.36 L 0,-62.654 0,-81.373 40.679,-40.693 Z M -1,-85.201 l -1,-1 -19.546,-19.546 0,-0.375 -0.375,0 -20.762,-20.762 9.359,-9.359 L 8.359,-94.56 -1,-85.201 Z m 41.687,-41.687 -9.367,9.367 -41.683,-41.682 9.367,-9.367 41.683,41.682 z m -30.841,-33.668 -9.842,-9.842 0,-18.857 19.271,19.271 -9.429,9.428 z m -9.842,-71.654 40.748,40.748 -9.452,9.452 -31.296,-31.296 0,-18.904 z m 0,21.732 29.882,29.882 -9.197,9.198 -20.685,-20.685 0,-18.395 z m -21.122,62.029 9.341,-9.34 41.683,41.682 -9.341,9.341 -41.683,-41.683 z m 40.269,43.097 -9.378,9.378 -41.683,-41.683 9.378,-9.378 41.683,41.683 z m -62.244,-19.113 8.999,8.999 0,63.371 -8.999,9.002 0,-81.372 z M -2,0.001 -10.349,-8.348 -2,-16.714 -2,0.001 Z M 19.137,-19.143 9.771,-9.775 0,-19.546 0,-38.279 19.137,-19.143 Z M 0,-59.826 29.908,-29.918 20.55,-20.557 0,-41.107 0,-59.826 Z m -2,21.561 0,18.719 -9.763,9.784 -9.37,-9.37 L -2,-38.265 Z m -20.547,17.719 -9.366,-9.366 29.913,-29.914 0,18.733 -20.547,20.547 z M -2,-81.372 l 0,18.718 -31.327,31.328 -9.352,-9.352 L -2,-81.372 Z m -19.546,-21.546 19.132,19.132 -19.132,19.139 0,-38.271 z m -2,-2 0,42.271 -8.548,8.551 0,-59.37 8.548,8.548 z m 96.969,117.572 0,0.11 -31.33,31.33 L 32.734,34.735 75.13,-7.662 73.716,-9.076 31.32,33.321 21.976,23.976 64.37,-18.417 62.956,-19.832 20.562,22.562 11.187,13.188 53.584,-29.208 52.17,-30.623 9.773,11.774 0.414,2.415 43.507,-40.693 32.749,-51.452 l 10.066,-10.066 -1.414,-1.414 -10.066,10.066 -9.359,-9.359 20.839,-20.839 -1.414,-1.415 -20.839,20.84 -9.36,-9.359 31.613,-31.613 -1.414,-1.414 -31.613,31.613 -9.374,-9.375 43.101,-43.101 -10.766,-10.765 9.352,-9.352 10.066,10.067 1.414,-1.415 -11.48,-11.48 -10.766,10.766 -9.359,-9.359 20.125,-20.126 20.839,20.84 1.414,-1.414 -22.253,-22.254 -21.539,21.54 -9.302,-9.302 30.906,-30.906 31.555,31.555 1.414,-1.414 -32.663,-32.663 -42.468,-42.469 0,-21.12 -2,0 0,85.761 -43.097,43.096 0,86.967 0,0.071 86.186,86.186 0,21.118 2,0 0,-21.118 8.851,-8.851 0,40.747 2,0 0,-42.747 8.706,-8.706 0,62.236 2,0 0,-64.236 8.773,-8.773 0,83.772 2,0 0,-85.772 L 85.901,3.114 84.487,1.7 73.533,12.654 l -0.11,0 z"
               style="fill:#c2bdb3;fill-opacity:1;fill-rule:nonzero;stroke:none" id="path24" />
         </g>
         <g transform="translate(66.5962,207.8974)" id="g30">
            <path
               d="M 0,0 0,-16.718 8.357,-8.36 0,0 Z m 40.679,-40.693 -9.357,9.36 L 0,-62.654 0,-81.373 40.679,-40.693 Z M -1,-85.201 l -1,-1 -19.546,-19.546 0,-0.375 -0.375,0 -20.762,-20.762 9.359,-9.359 L 8.359,-94.56 -1,-85.201 Z m 41.687,-41.687 -9.367,9.367 -41.683,-41.682 9.367,-9.367 41.683,41.682 z m -30.841,-33.668 -9.842,-9.842 0,-18.857 19.271,19.271 -9.429,9.428 z m -9.842,-71.654 40.748,40.748 -9.452,9.452 -31.296,-31.296 0,-18.904 z m 0,21.732 29.882,29.882 -9.197,9.198 -20.685,-20.685 0,-18.395 z m -21.122,62.029 9.341,-9.34 41.683,41.682 -9.341,9.341 -41.683,-41.683 z m 40.269,43.097 -9.378,9.378 -41.683,-41.683 9.378,-9.378 41.683,41.683 z m -62.244,-19.113 8.999,8.999 0,63.371 -8.999,9.002 0,-81.372 z M -2,0.001 -10.349,-8.348 -2,-16.714 -2,0.001 Z M 19.137,-19.143 9.771,-9.775 0,-19.546 0,-38.279 19.137,-19.143 Z M 0,-59.826 29.908,-29.918 20.55,-20.557 0,-41.107 0,-59.826 Z m -2,21.561 0,18.719 -9.763,9.784 -9.37,-9.37 L -2,-38.265 Z m -20.547,17.719 -9.366,-9.366 29.913,-29.914 0,18.733 -20.547,20.547 z M -2,-81.372 l 0,18.718 -31.327,31.328 -9.352,-9.352 L -2,-81.372 Z m -19.546,-21.546 19.132,19.132 -19.132,19.139 0,-38.271 z m -2,-2 0,42.271 -8.548,8.551 0,-59.37 8.548,8.548 z m 96.969,117.572 0,0.11 -31.33,31.33 L 32.734,34.735 75.13,-7.662 73.716,-9.076 31.32,33.321 21.976,23.976 64.37,-18.417 62.956,-19.832 20.562,22.562 11.187,13.188 53.584,-29.208 52.17,-30.623 9.773,11.774 0.414,2.415 43.507,-40.693 32.749,-51.452 l 10.066,-10.066 -1.414,-1.414 -10.066,10.066 -9.359,-9.359 20.839,-20.839 -1.414,-1.415 -20.839,20.84 -9.36,-9.359 31.613,-31.613 -1.414,-1.414 -31.613,31.613 -9.374,-9.375 43.101,-43.101 -10.766,-10.765 9.352,-9.352 10.066,10.067 1.414,-1.415 -11.48,-11.48 -10.766,10.766 -9.359,-9.359 20.125,-20.126 20.839,20.84 1.414,-1.414 -22.253,-22.254 -21.539,21.54 -9.302,-9.302 30.906,-30.906 31.555,31.555 1.414,-1.414 -32.663,-32.663 -42.468,-42.469 0,-21.12 -2,0 0,85.761 -43.097,43.096 0,86.967 0,0.071 86.186,86.186 0,21.118 2,0 0,-21.118 8.851,-8.851 0,40.747 2,0 0,-42.747 8.706,-8.706 0,62.236 2,0 0,-64.236 8.773,-8.773 0,83.772 2,0 0,-85.772 L 85.901,3.114 84.487,1.7 73.533,12.654 l -0.11,0 z"
               style="fill:#c2bdb3;fill-opacity:1;fill-rule:nonzero;stroke:none" id="path28" />
         </g>
         <g transform="translate(-20.4038,207.8974)" id="g34">
            <path
               d="M 0,0 0,-16.718 8.357,-8.36 0,0 Z m 40.679,-40.693 -9.357,9.36 L 0,-62.654 0,-81.373 40.679,-40.693 Z M -1,-85.201 l -1,-1 -19.546,-19.546 0,-0.375 -0.375,0 -20.762,-20.762 9.359,-9.359 L 8.359,-94.56 -1,-85.201 Z m 41.687,-41.687 -9.367,9.367 -41.683,-41.682 9.367,-9.367 41.683,41.682 z m -30.841,-33.668 -9.842,-9.842 0,-18.857 19.271,19.271 -9.429,9.428 z m -9.842,-71.654 40.748,40.748 -9.452,9.452 -31.296,-31.296 0,-18.904 z m 0,21.732 29.882,29.882 -9.197,9.198 -20.685,-20.685 0,-18.395 z m -21.122,62.029 9.341,-9.34 41.683,41.682 -9.341,9.341 -41.683,-41.683 z m 40.269,43.097 -9.378,9.378 -41.683,-41.683 9.378,-9.378 41.683,41.683 z m -62.244,-19.113 8.999,8.999 0,63.371 -8.999,9.002 0,-81.372 z M -2,0.001 -10.349,-8.348 -2,-16.714 -2,0.001 Z M 19.137,-19.143 9.771,-9.775 0,-19.546 0,-38.279 19.137,-19.143 Z M 0,-59.826 29.908,-29.918 20.55,-20.557 0,-41.107 0,-59.826 Z m -2,21.561 0,18.719 -9.763,9.784 -9.37,-9.37 L -2,-38.265 Z m -20.547,17.719 -9.366,-9.366 29.913,-29.914 0,18.733 -20.547,20.547 z M -2,-81.372 l 0,18.718 -31.327,31.328 -9.352,-9.352 L -2,-81.372 Z m -19.546,-21.546 19.132,19.132 -19.132,19.139 0,-38.271 z m -2,-2 0,42.271 -8.548,8.551 0,-59.37 8.548,8.548 z m 96.969,117.572 0,0.11 -31.33,31.33 L 32.734,34.735 75.13,-7.662 73.716,-9.076 31.32,33.321 21.976,23.976 64.37,-18.417 62.956,-19.832 20.562,22.562 11.187,13.188 53.584,-29.208 52.17,-30.623 9.773,11.774 0.414,2.415 43.507,-40.693 32.749,-51.452 l 10.066,-10.066 -1.414,-1.414 -10.066,10.066 -9.359,-9.359 20.839,-20.839 -1.414,-1.415 -20.839,20.84 -9.36,-9.359 31.613,-31.613 -1.414,-1.414 -31.613,31.613 -9.374,-9.375 43.101,-43.101 -10.766,-10.765 9.352,-9.352 10.066,10.067 1.414,-1.415 -11.48,-11.48 -10.766,10.766 -9.359,-9.359 20.125,-20.126 20.839,20.84 1.415,-1.414 -22.254,-22.254 -21.539,21.54 -9.302,-9.302 30.906,-30.906 31.555,31.555 1.414,-1.414 -32.663,-32.663 -42.468,-42.469 0,-21.12 -2,0 0,85.761 -43.097,43.096 0,86.967 0,0.071 86.186,86.186 0,21.118 2,0 0,-21.118 8.851,-8.851 0,40.747 2,0 0,-42.747 8.706,-8.706 0,62.236 2,0 0,-64.236 8.773,-8.773 0,83.772 2,0 0,-85.772 L 85.901,3.114 84.487,1.7 73.533,12.654 l -0.11,0 z"
               style="fill:#c2bdb3;fill-opacity:1;fill-rule:nonzero;stroke:none" id="path32" />
         </g>
         <g transform="translate(153.5962,466.8973)" id="g38">
            <path
               d="M 0,0 0,-16.718 8.357,-8.36 0,0 Z m 40.679,-40.693 -9.357,9.36 L 0,-62.654 0,-81.373 40.679,-40.693 Z M -1,-85.201 l -1,-1 -19.546,-19.546 0,-0.375 -0.375,0 -20.762,-20.762 9.359,-9.359 L 8.359,-94.56 -1,-85.201 Z m 41.687,-41.687 -9.367,9.367 -41.683,-41.682 9.367,-9.367 41.683,41.682 z m -30.841,-33.668 -9.842,-9.842 0,-18.857 19.271,19.271 -9.429,9.428 z m -9.842,-71.654 40.748,40.748 -9.452,9.452 -31.296,-31.296 0,-18.904 z m 0,21.732 29.882,29.882 -9.197,9.198 -20.685,-20.685 0,-18.395 z m -21.122,62.029 9.341,-9.34 41.683,41.682 -9.341,9.341 -41.683,-41.683 z m 40.269,43.097 -9.378,9.378 -41.683,-41.683 9.378,-9.378 41.683,41.683 z m -62.244,-19.113 8.999,8.999 0,63.371 -8.999,9.002 0,-81.372 z M -2,0.001 -10.349,-8.348 -2,-16.714 -2,0.001 Z M 19.137,-19.143 9.771,-9.775 0,-19.546 0,-38.279 19.137,-19.143 Z M 0,-59.826 29.908,-29.918 20.55,-20.557 0,-41.107 0,-59.826 Z m -2,21.561 0,18.719 -9.763,9.784 -9.37,-9.37 L -2,-38.265 Z m -20.547,17.719 -9.366,-9.366 29.913,-29.914 0,18.733 -20.547,20.547 z M -2,-81.372 l 0,18.718 -31.327,31.328 -9.352,-9.352 L -2,-81.372 Z m -19.546,-21.546 19.132,19.132 -19.132,19.139 0,-38.271 z m -2,-2 0,42.271 -8.548,8.551 0,-59.37 8.548,8.548 z m 96.969,117.572 0,0.11 -31.33,31.33 L 32.734,34.735 75.13,-7.662 73.716,-9.076 31.32,33.321 21.976,23.976 64.37,-18.417 62.956,-19.832 20.562,22.562 11.187,13.188 53.584,-29.208 52.17,-30.623 9.773,11.774 0.414,2.415 43.507,-40.693 32.749,-51.452 l 10.066,-10.066 -1.414,-1.414 -10.066,10.066 -9.359,-9.359 20.839,-20.839 -1.414,-1.415 -20.839,20.84 -9.36,-9.359 31.613,-31.613 -1.414,-1.414 -31.613,31.613 -9.374,-9.375 43.101,-43.101 -10.766,-10.765 9.352,-9.352 10.066,10.067 1.414,-1.415 -11.48,-11.48 -10.766,10.766 -9.359,-9.359 20.125,-20.126 20.839,20.84 1.414,-1.414 -22.253,-22.254 -21.539,21.54 -9.302,-9.302 30.906,-30.906 31.555,31.555 1.414,-1.414 -32.663,-32.663 -42.468,-42.469 0,-21.12 -2,0 0,85.761 -43.097,43.096 0,86.967 0,0.071 86.186,86.186 0,21.118 2,0 0,-21.118 8.851,-8.851 0,40.747 2,0 0,-42.747 8.706,-8.706 0,62.236 2,0 0,-64.236 8.773,-8.773 0,83.772 2,0 0,-85.772 L 85.901,3.114 84.487,1.7 73.533,12.654 l -0.11,0 z"
               style="fill:#c2bdb3;fill-opacity:1;fill-rule:nonzero;stroke:none" id="path36" />
         </g>
         <g transform="translate(66.5962,466.8973)" id="g42">
            <path
               d="M 0,0 0,-16.718 8.357,-8.36 0,0 Z m 40.679,-40.693 -9.357,9.36 L 0,-62.654 0,-81.373 40.679,-40.693 Z M -1,-85.201 l -1,-1 -19.546,-19.546 0,-0.375 -0.375,0 -20.762,-20.762 9.359,-9.359 L 8.359,-94.56 -1,-85.201 Z m 41.687,-41.687 -9.367,9.367 -41.683,-41.682 9.367,-9.367 41.683,41.682 z m -30.841,-33.668 -9.842,-9.842 0,-18.857 19.271,19.271 -9.429,9.428 z m -9.842,-71.654 40.748,40.748 -9.452,9.452 -31.296,-31.296 0,-18.904 z m 0,21.732 29.882,29.882 -9.197,9.198 -20.685,-20.685 0,-18.395 z m -21.122,62.029 9.341,-9.34 41.683,41.682 -9.341,9.341 -41.683,-41.683 z m 40.269,43.097 -9.378,9.378 -41.683,-41.683 9.378,-9.378 41.683,41.683 z m -62.244,-19.113 8.999,8.999 0,63.371 -8.999,9.002 0,-81.372 z M -2,0.001 -10.349,-8.348 -2,-16.714 -2,0.001 Z M 19.137,-19.143 9.771,-9.775 0,-19.546 0,-38.279 19.137,-19.143 Z M 0,-59.826 29.908,-29.918 20.55,-20.557 0,-41.107 0,-59.826 Z m -2,21.561 0,18.719 -9.763,9.784 -9.37,-9.37 L -2,-38.265 Z m -20.547,17.719 -9.366,-9.366 29.913,-29.914 0,18.733 -20.547,20.547 z M -2,-81.372 l 0,18.718 -31.327,31.328 -9.352,-9.352 L -2,-81.372 Z m -19.546,-21.546 19.132,19.132 -19.132,19.139 0,-38.271 z m -2,-2 0,42.271 -8.548,8.551 0,-59.37 8.548,8.548 z m 96.969,117.572 0,0.11 -31.33,31.33 L 32.734,34.735 75.13,-7.662 73.716,-9.076 31.32,33.321 21.976,23.976 64.37,-18.417 62.956,-19.832 20.562,22.562 11.187,13.188 53.584,-29.208 52.17,-30.623 9.773,11.774 0.414,2.415 43.507,-40.693 32.749,-51.452 l 10.066,-10.066 -1.414,-1.414 -10.066,10.066 -9.359,-9.359 20.839,-20.839 -1.414,-1.415 -20.839,20.84 -9.36,-9.359 31.613,-31.613 -1.414,-1.414 -31.613,31.613 -9.374,-9.375 43.101,-43.101 -10.766,-10.765 9.352,-9.352 10.066,10.067 1.414,-1.415 -11.48,-11.48 -10.766,10.766 -9.359,-9.359 20.125,-20.126 20.839,20.84 1.414,-1.414 -22.253,-22.254 -21.539,21.54 -9.302,-9.302 30.906,-30.906 31.555,31.555 1.414,-1.414 -32.663,-32.663 -42.468,-42.469 0,-21.12 -2,0 0,85.761 -43.097,43.096 0,86.967 0,0.071 86.186,86.186 0,21.118 2,0 0,-21.118 8.851,-8.851 0,40.747 2,0 0,-42.747 8.706,-8.706 0,62.236 2,0 0,-64.236 8.773,-8.773 0,83.772 2,0 0,-85.772 L 85.901,3.114 84.487,1.7 73.533,12.654 l -0.11,0 z"
               style="fill:#c2bdb3;fill-opacity:1;fill-rule:nonzero;stroke:none" id="path40" />
         </g>
         <g transform="translate(-20.4038,466.8973)" id="g46">
            <path
               d="M 0,0 0,-16.718 8.357,-8.36 0,0 Z m 40.679,-40.693 -9.357,9.36 L 0,-62.654 0,-81.373 40.679,-40.693 Z M -1,-85.201 l -1,-1 -19.546,-19.546 0,-0.375 -0.375,0 -20.762,-20.762 9.359,-9.359 L 8.359,-94.56 -1,-85.201 Z m 41.687,-41.687 -9.367,9.367 -41.683,-41.682 9.367,-9.367 41.683,41.682 z m -30.841,-33.668 -9.842,-9.842 0,-18.857 19.271,19.271 -9.429,9.428 z m -9.842,-71.654 40.748,40.748 -9.452,9.452 -31.296,-31.296 0,-18.904 z m 0,21.732 29.882,29.882 -9.197,9.198 -20.685,-20.685 0,-18.395 z m -21.122,62.029 9.341,-9.34 41.683,41.682 -9.341,9.341 -41.683,-41.683 z m 40.269,43.097 -9.378,9.378 -41.683,-41.683 9.378,-9.378 41.683,41.683 z m -62.244,-19.113 8.999,8.999 0,63.371 -8.999,9.002 0,-81.372 z M -2,0.001 -10.349,-8.348 -2,-16.714 -2,0.001 Z M 19.137,-19.143 9.771,-9.775 0,-19.546 0,-38.279 19.137,-19.143 Z M 0,-59.826 29.908,-29.918 20.55,-20.557 0,-41.107 0,-59.826 Z m -2,21.561 0,18.719 -9.763,9.784 -9.37,-9.37 L -2,-38.265 Z m -20.547,17.719 -9.366,-9.366 29.913,-29.914 0,18.733 -20.547,20.547 z M -2,-81.372 l 0,18.718 -31.327,31.328 -9.352,-9.352 L -2,-81.372 Z m -19.546,-21.546 19.132,19.132 -19.132,19.139 0,-38.271 z m -2,-2 0,42.271 -8.548,8.551 0,-59.37 8.548,8.548 z m 96.969,117.572 0,0.11 -31.33,31.33 L 32.734,34.735 75.13,-7.662 73.716,-9.076 31.32,33.321 21.976,23.976 64.37,-18.417 62.956,-19.832 20.562,22.562 11.187,13.188 53.584,-29.208 52.17,-30.623 9.773,11.774 0.414,2.415 43.507,-40.693 32.749,-51.452 l 10.066,-10.066 -1.414,-1.414 -10.066,10.066 -9.359,-9.359 20.839,-20.839 -1.414,-1.415 -20.839,20.84 -9.36,-9.359 31.613,-31.613 -1.414,-1.414 -31.613,31.613 -9.374,-9.375 43.101,-43.101 -10.766,-10.765 9.352,-9.352 10.066,10.067 1.414,-1.415 -11.48,-11.48 -10.766,10.766 -9.359,-9.359 20.125,-20.126 20.839,20.84 1.415,-1.414 -22.254,-22.254 -21.539,21.54 -9.302,-9.302 30.906,-30.906 31.555,31.555 1.414,-1.414 -32.663,-32.663 -42.468,-42.469 0,-21.12 -2,0 0,85.761 -43.097,43.096 0,86.967 0,0.071 86.186,86.186 0,21.118 2,0 0,-21.118 8.851,-8.851 0,40.747 2,0 0,-42.747 8.706,-8.706 0,62.236 2,0 0,-64.236 8.773,-8.773 0,83.772 2,0 0,-85.772 L 85.901,3.114 84.487,1.7 73.533,12.654 l -0.11,0 z"
               style="fill:#c2bdb3;fill-opacity:1;fill-rule:nonzero;stroke:none" id="path44" />
         </g>
      </pattern>
      <clipPath clipPathUnits="userSpaceOnUse" id="clipPath58">
         <path d="M 0,500 H 500 V 0 H 0 Z" id="path56" />
      </clipPath>
      <pattern patternTransform="translate(0,500)" patternUnits="userSpaceOnUse" x="0" y="0" width="79.7323"
         height="79.7322" id="pattern148">
         <g transform="translate(89.7,-8.6175)" id="g62">
            <path d="M 0,0 -19.668,-19.668 -39.336,0 -19.668,19.668 0,0 Z"
               style="fill:none;stroke:#fafafa;stroke-opacity:1;stroke-width:1.5;stroke-linecap:round;stroke-linejoin:bevel;stroke-miterlimit:10;stroke-dasharray:none"
               id="path60" />
         </g>
         <g transform="translate(60.1981,1.2165)" id="g66">
            <path d="M 0,0 19.668,-19.668"
               style="fill:none;stroke:#fafafa;stroke-opacity:1;stroke-width:1.5;stroke-linecap:round;stroke-linejoin:bevel;stroke-miterlimit:10;stroke-dasharray:9;stroke-dashoffset:0"
               id="path64" />
         </g>
         <g transform="translate(79.866,1.2165)" id="g70">
            <path d="M 0,0 -19.668,-19.668"
               style="fill:none;stroke:#fafafa;stroke-opacity:1;stroke-width:1.5;stroke-linecap:round;stroke-linejoin:bevel;stroke-miterlimit:10;stroke-dasharray:9;stroke-dashoffset:0"
               id="path68" />
         </g>
         <g transform="translate(9.9677,-8.6175)" id="g74">
            <path d="M 0,0 -19.668,-19.668 -39.336,0 -19.668,19.668 0,0 Z"
               style="fill:none;stroke:#fafafa;stroke-opacity:1;stroke-width:1.5;stroke-linecap:round;stroke-linejoin:bevel;stroke-miterlimit:10;stroke-dasharray:none"
               id="path72" />
         </g>
         <g transform="translate(-19.5341,1.2165)" id="g78">
            <path d="M 0,0 19.668,-19.668"
               style="fill:none;stroke:#fafafa;stroke-opacity:1;stroke-width:1.5;stroke-linecap:round;stroke-linejoin:bevel;stroke-miterlimit:10;stroke-dasharray:9;stroke-dashoffset:0"
               id="path76" />
         </g>
         <g transform="translate(0.1338,1.2165)" id="g82">
            <path d="M 0,0 -19.668,-19.668"
               style="fill:none;stroke:#fafafa;stroke-opacity:1;stroke-width:1.5;stroke-linecap:round;stroke-linejoin:bevel;stroke-miterlimit:10;stroke-dasharray:9;stroke-dashoffset:0"
               id="path80" />
         </g>
         <g transform="translate(70.4286,31.779)" id="g86">
            <path d="M 0,0 19.668,19.668 39.336,0 19.668,-19.668 0,0 Z"
               style="fill:none;stroke:#fafafa;stroke-opacity:1;stroke-width:1.5;stroke-linecap:round;stroke-linejoin:bevel;stroke-miterlimit:10;stroke-dasharray:none"
               id="path84" />
         </g>
         <g transform="translate(10.3643,12.1111)" id="g90">
            <path d="M 0,0 19.668,19.668 39.336,0 19.668,-19.668 0,0 Z"
               style="fill:none;stroke:#fafafa;stroke-opacity:1;stroke-width:1.5;stroke-linecap:round;stroke-linejoin:bevel;stroke-miterlimit:10;stroke-dasharray:none"
               id="path88" />
         </g>
         <g transform="translate(39.8661,2.2771)" id="g94">
            <path d="M 0,0 -19.668,19.668"
               style="fill:none;stroke:#fafafa;stroke-opacity:1;stroke-width:1.5;stroke-linecap:round;stroke-linejoin:bevel;stroke-miterlimit:10;stroke-dasharray:9;stroke-dashoffset:0"
               id="path92" />
         </g>
         <g transform="translate(20.1982,2.2771)" id="g98">
            <path d="M 0,0 19.668,19.668"
               style="fill:none;stroke:#fafafa;stroke-opacity:1;stroke-width:1.5;stroke-linecap:round;stroke-linejoin:bevel;stroke-miterlimit:10;stroke-dasharray:9;stroke-dashoffset:0"
               id="path96" />
         </g>
         <g transform="translate(-9.3036,31.779)" id="g102">
            <path d="M 0,0 19.668,19.668 39.336,0 19.668,-19.668 0,0 Z"
               style="fill:none;stroke:#fafafa;stroke-opacity:1;stroke-width:1.5;stroke-linecap:round;stroke-linejoin:bevel;stroke-miterlimit:10;stroke-dasharray:none"
               id="path100" />
         </g>
         <g transform="translate(49.7,51.4469)" id="g106">
            <path d="M 0,0 -19.668,-19.668 -39.336,0 -19.668,19.668 0,0 Z"
               style="fill:none;stroke:#fafafa;stroke-opacity:1;stroke-width:1.5;stroke-linecap:round;stroke-linejoin:bevel;stroke-miterlimit:10;stroke-dasharray:none"
               id="path104" />
         </g>
         <g transform="translate(20.1982,61.2808)" id="g110">
            <path d="M 0,0 19.668,-19.668"
               style="fill:none;stroke:#fafafa;stroke-opacity:1;stroke-width:1.5;stroke-linecap:round;stroke-linejoin:bevel;stroke-miterlimit:10;stroke-dasharray:9;stroke-dashoffset:0"
               id="path108" />
         </g>
         <g transform="translate(39.8661,61.2808)" id="g114">
            <path d="M 0,0 -19.668,-19.668"
               style="fill:none;stroke:#fafafa;stroke-opacity:1;stroke-width:1.5;stroke-linecap:round;stroke-linejoin:bevel;stroke-miterlimit:10;stroke-dasharray:9;stroke-dashoffset:0"
               id="path112" />
         </g>
         <g transform="translate(89.7,71.1148)" id="g118">
            <path d="M 0,0 -19.668,-19.668 -39.336,0 -19.668,19.668 0,0 Z"
               style="fill:none;stroke:#fafafa;stroke-opacity:1;stroke-width:1.5;stroke-linecap:round;stroke-linejoin:bevel;stroke-miterlimit:10;stroke-dasharray:none"
               id="path116" />
         </g>
         <g transform="translate(60.1981,80.9487)" id="g122">
            <path d="M 0,0 19.668,-19.668"
               style="fill:none;stroke:#fafafa;stroke-opacity:1;stroke-width:1.5;stroke-linecap:round;stroke-linejoin:bevel;stroke-miterlimit:10;stroke-dasharray:9;stroke-dashoffset:0"
               id="path120" />
         </g>
         <g transform="translate(79.866,80.9487)" id="g126">
            <path d="M 0,0 -19.668,-19.668"
               style="fill:none;stroke:#fafafa;stroke-opacity:1;stroke-width:1.5;stroke-linecap:round;stroke-linejoin:bevel;stroke-miterlimit:10;stroke-dasharray:9;stroke-dashoffset:0"
               id="path124" />
         </g>
         <g transform="translate(69.3679,31.779)" id="g130">
            <path d="M 0,0 -19.668,-19.668 -39.336,0 -19.668,19.668 0,0 Z"
               style="fill:none;stroke:#fafafa;stroke-opacity:1;stroke-width:1.5;stroke-linecap:round;stroke-linejoin:bevel;stroke-miterlimit:10;stroke-dasharray:none"
               id="path128" />
         </g>
         <g transform="translate(9.9677,71.1148)" id="g134">
            <path d="M 0,0 -19.668,-19.668 -39.336,0 -19.668,19.668 0,0 Z"
               style="fill:none;stroke:#fafafa;stroke-opacity:1;stroke-width:1.5;stroke-linecap:round;stroke-linejoin:bevel;stroke-miterlimit:10;stroke-dasharray:none"
               id="path132" />
         </g>
         <g transform="translate(-19.5341,80.9487)" id="g138">
            <path d="M 0,0 19.668,-19.668"
               style="fill:none;stroke:#fafafa;stroke-opacity:1;stroke-width:1.5;stroke-linecap:round;stroke-linejoin:bevel;stroke-miterlimit:10;stroke-dasharray:9;stroke-dashoffset:0"
               id="path136" />
         </g>
         <g transform="translate(0.1338,80.9487)" id="g142">
            <path d="M 0,0 -19.668,-19.668"
               style="fill:none;stroke:#fafafa;stroke-opacity:1;stroke-width:1.5;stroke-linecap:round;stroke-linejoin:bevel;stroke-miterlimit:10;stroke-dasharray:9;stroke-dashoffset:0"
               id="path140" />
         </g>
         <g transform="translate(10.3643,91.8433)" id="g146">
            <path d="M 0,0 19.668,19.668 39.336,0 19.668,-19.668 0,0 Z"
               style="fill:none;stroke:#fafafa;stroke-opacity:1;stroke-width:1.5;stroke-linecap:round;stroke-linejoin:bevel;stroke-miterlimit:10;stroke-dasharray:none"
               id="path144" />
         </g>
      </pattern>
   </defs>
   <sodipodi:namedview id="namedview4" pagecolor="#000000" bordercolor="#000000" borderopacity="0.25"
      inkscape:showpageshadow="2" inkscape:pageopacity="0.0" inkscape:pagecheckerboard="0"
      inkscape:deskcolor="#ffffff" />
   <g id="g8" inkscape:groupmode="layer" inkscape:label="5328479"
      transform="matrix(1.3333333,0,0,-1.3333333,0,666.66667)">
      <path d="M 0,0 H 500 V 500 H 0 Z" style="fill:#f5f5f4;fill-opacity:1;fill-rule:nonzero;stroke:none" id="path10" />
      <path d="M 0,0 H 500 V 500 H 0 Z" style="fill:url(#pattern48);fill-opacity:1;fill-rule:nonzero;stroke:none"
         id="path50" />
      <g id="g52">
         <g id="g54" clip-path="url(#clipPath58)">
            <path d="M 500,0 H 0 v 500 h 500 z"
               style="fill:none;stroke:url(#pattern148);stroke-width:1.22;stroke-linecap:butt;stroke-linejoin:miter;stroke-miterlimit:10;stroke-dasharray:none;stroke-opacity:1"
               id="path150" />
         </g>
      </g>
   </g>
</svg>